<?xml version="1.0" encoding="utf-8"?>
<!-- Generator: Adobe Illustrator 15.0.2, SVG Export Plug-In . SVG Version: 6.00 Build 0)  -->
<!DOCTYPE svg PUBLIC "-//W3C//DTD SVG 1.1//EN" "http://www.w3.org/Graphics/SVG/1.1/DTD/svg11.dtd">
<svg version="1.1" xmlns="http://www.w3.org/2000/svg" xmlns:xlink="http://www.w3.org/1999/xlink" x="0px" y="0px"
	 width="400.023px" height="174.566px" viewBox="0 0 400.023 174.566" enable-background="new 0 0 400.023 174.566"
	 xml:space="preserve">
<g id="Layer_1">
	<g>
		<text transform="matrix(1 0 0 1 46.4854 154.2764)"><tspan x="0" y="0" fill="#010101" font-family="'HelveticaNeue-Bold'" font-size="93.505" letter-spacing="-4">open</tspan><tspan x="204.679" y="0" fill="#231F20" font-family="'HelveticaNeue'" font-size="93.505">BIS</tspan></text>
		<rect x="204.234" y="158.748" fill="none" width="192.64" height="14.936"/>
		<text transform="matrix(1 0 0 1 204.2329 169.876)" fill="#010101" font-family="'HelveticaNeue'" font-size="15.5842">Biology Information System</text>
		<g>
			<g>
				<g>
					<g>
						<polygon fill="#068172" points="125.213,81.967 141.416,98.167 147.252,92.333 131.053,76.132 125.213,76.132 						"/>
					</g>
					<g>
						<g>
							<polygon fill="#068172" points="120.206,81.967 104.005,98.167 98.168,92.333 114.368,76.132 120.206,76.132 							"/>
						</g>
						<g>
							<polygon fill="#068172" points="120.206,65.286 104.005,49.084 98.168,54.92 114.368,71.12 120.206,71.12 							"/>
						</g>
					</g>
				</g>
				<g>
					<polygon fill="#068172" points="125.213,65.286 141.416,49.084 147.252,54.92 131.053,71.12 125.213,71.12 					"/>
				</g>
			</g>
			<g>
				<g>
					<polygon fill="#A4A4A4" points="76.131,16.201 92.331,0 98.168,5.836 81.969,22.036 76.13,22.036 					"/>
				</g>
				<g>
					<g>
						<polygon fill="#ADACAF" points="76.131,32.882 92.331,49.084 98.168,43.247 81.969,27.048 76.13,27.048 						"/>
					</g>
					<g>
						<g>
							<polygon fill="#ADACAF" points="71.122,32.882 54.921,49.084 49.084,43.247 65.283,27.048 71.123,27.048 							"/>
						</g>
						<g>
							<polygon fill="#ADACAF" points="71.122,16.201 54.921,0 49.084,5.836 65.283,22.036 71.123,22.036 							"/>
						</g>
					</g>
				</g>
			</g>
			<g>
				<g>
					<polygon fill="#ADACAF" points="27.046,65.286 43.247,49.084 49.083,54.92 32.884,71.12 27.045,71.12 					"/>
				</g>
				<g>
					<polygon fill="#ADACAF" points="27.046,81.967 43.247,98.167 49.083,92.333 32.884,76.132 27.045,76.132 					"/>
				</g>
				<g>
					<polygon fill="#ADACAF" points="22.038,81.967 5.837,98.167 0,92.333 16.199,76.132 22.038,76.132 					"/>
				</g>
				<g>
					<polygon fill="#ADACAF" points="22.038,65.286 5.837,49.084 0,54.92 16.199,71.12 22.038,71.12 					"/>
				</g>
			</g>
		</g>
	</g>
</g>
<g id="Layer_2">
</g>
</svg>
